<mxfile host="app.diagrams.net" agent="Mozilla/5.0 (Windows NT 10.0; Win64; x64) AppleWebKit/537.36 (KHTML, like Gecko) Chrome/135.0.0.0 Safari/537.36" version="27.1.3">
  <diagram name="Trang-1" id="PanDtr4Ns-lOTOnSp4-M">
    <mxGraphModel dx="2849" dy="1743" grid="1" gridSize="10" guides="1" tooltips="1" connect="1" arrows="1" fold="1" page="1" pageScale="1" pageWidth="2339" pageHeight="3300" math="0" shadow="0">
      <root>
        <mxCell id="0" />
        <mxCell id="1" parent="0" />
        <mxCell id="QcWgkCcUUPCsEugS9lYw-1" value="" style="whiteSpace=wrap;html=1;aspect=fixed;" parent="1" vertex="1">
          <mxGeometry x="830" y="20" width="2410" height="2410" as="geometry" />
        </mxCell>
        <mxCell id="QcWgkCcUUPCsEugS9lYw-2" value="&lt;font style=&quot;font-size: 29px;&quot;&gt;Hệ thông khảo thí thông minh&lt;/font&gt;" style="rounded=0;whiteSpace=wrap;html=1;" parent="1" vertex="1">
          <mxGeometry x="845" y="30" width="270" height="80" as="geometry" />
        </mxCell>
        <mxCell id="QcWgkCcUUPCsEugS9lYw-3" value="&lt;font style=&quot;font-size: 25px;&quot;&gt;Xem thông báo&lt;/font&gt;" style="ellipse;whiteSpace=wrap;html=1;" parent="1" vertex="1">
          <mxGeometry x="1560" y="160" width="230" height="120" as="geometry" />
        </mxCell>
        <mxCell id="QcWgkCcUUPCsEugS9lYw-4" value="Làm bài ôn tập" style="ellipse;whiteSpace=wrap;html=1;fontSize=28;" parent="1" vertex="1">
          <mxGeometry x="1400" y="340" width="200" height="90" as="geometry" />
        </mxCell>
        <mxCell id="QcWgkCcUUPCsEugS9lYw-5" value="&lt;font style=&quot;font-size: 25px;&quot;&gt;Xem hướng dẫn thi&lt;/font&gt;" style="ellipse;whiteSpace=wrap;html=1;" parent="1" vertex="1">
          <mxGeometry x="1530" y="500" width="180" height="90" as="geometry" />
        </mxCell>
        <mxCell id="QcWgkCcUUPCsEugS9lYw-6" value="&lt;font style=&quot;font-size: 30px;&quot;&gt;Xem lịch thi&lt;/font&gt;" style="ellipse;whiteSpace=wrap;html=1;" parent="1" vertex="1">
          <mxGeometry x="1170" y="660" width="210" height="100" as="geometry" />
        </mxCell>
        <mxCell id="QcWgkCcUUPCsEugS9lYw-7" value="&lt;font style=&quot;font-size: 32px;&quot;&gt;Tham gia thi&lt;/font&gt;" style="ellipse;whiteSpace=wrap;html=1;" parent="1" vertex="1">
          <mxGeometry x="1390" y="810" width="230" height="110" as="geometry" />
        </mxCell>
        <mxCell id="QcWgkCcUUPCsEugS9lYw-8" value="&lt;font style=&quot;font-size: 32px;&quot;&gt;Làm bài thi&lt;/font&gt;" style="ellipse;whiteSpace=wrap;html=1;" parent="1" vertex="1">
          <mxGeometry x="1720" y="630" width="190" height="100" as="geometry" />
        </mxCell>
        <mxCell id="QcWgkCcUUPCsEugS9lYw-9" value="&lt;font style=&quot;font-size: 32px;&quot;&gt;Nộp bài thi&lt;/font&gt;" style="ellipse;whiteSpace=wrap;html=1;" parent="1" vertex="1">
          <mxGeometry x="1710" y="970" width="210" height="110" as="geometry" />
        </mxCell>
        <mxCell id="QcWgkCcUUPCsEugS9lYw-10" value="&lt;font style=&quot;font-size: 27px;&quot;&gt;Xem lịch coi thi&lt;/font&gt;" style="ellipse;whiteSpace=wrap;html=1;" parent="1" vertex="1">
          <mxGeometry x="2280" y="160" width="250" height="110" as="geometry" />
        </mxCell>
        <mxCell id="QcWgkCcUUPCsEugS9lYw-11" value="&lt;font style=&quot;font-size: 30px;&quot;&gt;Theo dõi kì thi&lt;/font&gt;" style="ellipse;whiteSpace=wrap;html=1;" parent="1" vertex="1">
          <mxGeometry x="2280" y="330" width="250" height="110" as="geometry" />
        </mxCell>
        <mxCell id="QcWgkCcUUPCsEugS9lYw-12" value="&lt;font style=&quot;font-size: 23px;&quot;&gt;Xử lý, ghi nhận biển bản thi điện tử&lt;/font&gt;" style="ellipse;whiteSpace=wrap;html=1;" parent="1" vertex="1">
          <mxGeometry x="2280" y="490" width="250" height="110" as="geometry" />
        </mxCell>
        <mxCell id="QcWgkCcUUPCsEugS9lYw-13" value="&lt;font style=&quot;font-size: 21px;&quot;&gt;Nhận cảnh báo gian lận&lt;/font&gt;" style="ellipse;whiteSpace=wrap;html=1;" parent="1" vertex="1">
          <mxGeometry x="2280" y="640" width="250" height="110" as="geometry" />
        </mxCell>
        <mxCell id="QcWgkCcUUPCsEugS9lYw-14" value="&lt;font style=&quot;font-size: 28px;&quot;&gt;Phản hồi sau thi&lt;/font&gt;" style="ellipse;whiteSpace=wrap;html=1;" parent="1" vertex="1">
          <mxGeometry x="2280" y="830" width="250" height="110" as="geometry" />
        </mxCell>
        <mxCell id="QcWgkCcUUPCsEugS9lYw-15" value="&lt;font style=&quot;font-size: 25px;&quot;&gt;Đánh giá đề thi&lt;/font&gt;" style="ellipse;whiteSpace=wrap;html=1;" parent="1" vertex="1">
          <mxGeometry x="1960" y="1150" width="180" height="100" as="geometry" />
        </mxCell>
        <mxCell id="QcWgkCcUUPCsEugS9lYw-16" value="&lt;font style=&quot;font-size: 31px;&quot;&gt;Xem kết quả&lt;/font&gt;" style="ellipse;whiteSpace=wrap;html=1;" parent="1" vertex="1">
          <mxGeometry x="1215" y="950" width="215" height="100" as="geometry" />
        </mxCell>
        <mxCell id="QcWgkCcUUPCsEugS9lYw-17" value="&lt;font style=&quot;font-size: 28px;&quot;&gt;Xem thống kê&lt;/font&gt;" style="ellipse;whiteSpace=wrap;html=1;" parent="1" vertex="1">
          <mxGeometry x="1360" y="1080" width="215" height="100" as="geometry" />
        </mxCell>
        <mxCell id="QcWgkCcUUPCsEugS9lYw-18" value="&lt;font style=&quot;font-size: 23px;&quot;&gt;Gửi yêu cầu phúc khảo&lt;/font&gt;" style="ellipse;whiteSpace=wrap;html=1;" parent="1" vertex="1">
          <mxGeometry x="1505" y="1180" width="215" height="100" as="geometry" />
        </mxCell>
        <mxCell id="QcWgkCcUUPCsEugS9lYw-19" value="&lt;font style=&quot;font-size: 25px;&quot;&gt;Xem lịch sử thi&lt;/font&gt;" style="ellipse;whiteSpace=wrap;html=1;" parent="1" vertex="1">
          <mxGeometry x="1640" y="1300" width="215" height="100" as="geometry" />
        </mxCell>
        <mxCell id="QcWgkCcUUPCsEugS9lYw-20" value="&lt;font style=&quot;font-size: 25px;&quot;&gt;Xóa tài khoản&lt;/font&gt;" style="ellipse;whiteSpace=wrap;html=1;" parent="1" vertex="1">
          <mxGeometry x="860" y="1305" width="170" height="90" as="geometry" />
        </mxCell>
        <mxCell id="QcWgkCcUUPCsEugS9lYw-21" value="&lt;font style=&quot;font-size: 24px;&quot;&gt;Tìm kiếm tài khoản&lt;/font&gt;" style="ellipse;whiteSpace=wrap;html=1;" parent="1" vertex="1">
          <mxGeometry x="880" y="1570" width="180" height="90" as="geometry" />
        </mxCell>
        <mxCell id="QcWgkCcUUPCsEugS9lYw-22" value="&lt;font style=&quot;font-size: 24px;&quot;&gt;Cập nhật tài khoản&lt;/font&gt;" style="ellipse;whiteSpace=wrap;html=1;" parent="1" vertex="1">
          <mxGeometry x="1090" y="1400" width="180" height="90" as="geometry" />
        </mxCell>
        <mxCell id="QcWgkCcUUPCsEugS9lYw-23" value="&lt;font style=&quot;font-size: 23px;&quot;&gt;Thêm tài khoản&lt;/font&gt;" style="ellipse;whiteSpace=wrap;html=1;" parent="1" vertex="1">
          <mxGeometry x="1415" y="1400" width="180" height="90" as="geometry" />
        </mxCell>
        <mxCell id="QcWgkCcUUPCsEugS9lYw-24" value="&lt;font style=&quot;font-size: 30px;&quot;&gt;Đăng nhập&lt;/font&gt;" style="ellipse;whiteSpace=wrap;html=1;" parent="1" vertex="1">
          <mxGeometry x="1460" y="1650" width="180" height="90" as="geometry" />
        </mxCell>
        <mxCell id="QcWgkCcUUPCsEugS9lYw-25" value="&lt;font style=&quot;font-size: 28px;&quot;&gt;Quản lý tài khoản người dùng&lt;/font&gt;" style="ellipse;whiteSpace=wrap;html=1;" parent="1" vertex="1">
          <mxGeometry x="1035" y="1760" width="275" height="120" as="geometry" />
        </mxCell>
        <mxCell id="QcWgkCcUUPCsEugS9lYw-26" value="&lt;font style=&quot;font-size: 24px;&quot;&gt;Phân quyền người dùng&lt;/font&gt;" style="ellipse;whiteSpace=wrap;html=1;" parent="1" vertex="1">
          <mxGeometry x="1180" y="1910" width="275" height="120" as="geometry" />
        </mxCell>
        <mxCell id="QcWgkCcUUPCsEugS9lYw-27" value="&lt;font style=&quot;font-size: 26px;&quot;&gt;Khôi phục mật khẩu, khóa tài khoản&lt;/font&gt;" style="ellipse;whiteSpace=wrap;html=1;" parent="1" vertex="1">
          <mxGeometry x="1270" y="2070" width="275" height="120" as="geometry" />
        </mxCell>
        <mxCell id="QcWgkCcUUPCsEugS9lYw-28" value="&lt;font style=&quot;font-size: 29px;&quot;&gt;Cấu hình hệ thống&lt;/font&gt;" style="ellipse;whiteSpace=wrap;html=1;" parent="1" vertex="1">
          <mxGeometry x="1115" y="2230" width="275" height="100" as="geometry" />
        </mxCell>
        <mxCell id="QcWgkCcUUPCsEugS9lYw-29" value="&lt;font style=&quot;font-size: 30px;&quot;&gt;THêm câu hỏi&lt;/font&gt;" style="ellipse;whiteSpace=wrap;html=1;" parent="1" vertex="1">
          <mxGeometry x="2970" y="1160" width="240" height="105" as="geometry" />
        </mxCell>
        <mxCell id="QcWgkCcUUPCsEugS9lYw-30" value="&lt;font style=&quot;font-size: 24px;&quot;&gt;Cập nhật câu hỏi&lt;/font&gt;" style="ellipse;whiteSpace=wrap;html=1;" parent="1" vertex="1">
          <mxGeometry x="2740" y="1290" width="190" height="105" as="geometry" />
        </mxCell>
        <mxCell id="QcWgkCcUUPCsEugS9lYw-31" value="&lt;font style=&quot;font-size: 27px;&quot;&gt;Xóa câu hỏi&lt;/font&gt;" style="ellipse;whiteSpace=wrap;html=1;" parent="1" vertex="1">
          <mxGeometry x="2530" y="1430" width="190" height="105" as="geometry" />
        </mxCell>
        <mxCell id="QcWgkCcUUPCsEugS9lYw-33" value="&lt;font style=&quot;font-size: 29px;&quot;&gt;Tạo đề ôn tập&lt;/font&gt;" style="ellipse;whiteSpace=wrap;html=1;" parent="1" vertex="1">
          <mxGeometry x="2360" y="1830" width="240" height="105" as="geometry" />
        </mxCell>
        <mxCell id="QcWgkCcUUPCsEugS9lYw-34" value="&lt;font style=&quot;font-size: 31px;&quot;&gt;Tạo đề thi&lt;/font&gt;" style="ellipse;whiteSpace=wrap;html=1;" parent="1" vertex="1">
          <mxGeometry x="2080" y="1990" width="240" height="105" as="geometry" />
        </mxCell>
        <mxCell id="QcWgkCcUUPCsEugS9lYw-35" value="&lt;font style=&quot;font-size: 29px;&quot;&gt;Chấm bài thi&lt;/font&gt;" style="ellipse;whiteSpace=wrap;html=1;" parent="1" vertex="1">
          <mxGeometry x="2020" y="2170" width="240" height="105" as="geometry" />
        </mxCell>
        <mxCell id="QcWgkCcUUPCsEugS9lYw-36" value="&lt;font style=&quot;font-size: 27px;&quot;&gt;Xem thống kê&lt;/font&gt;" style="ellipse;whiteSpace=wrap;html=1;" parent="1" vertex="1">
          <mxGeometry x="2600" y="2200" width="240" height="105" as="geometry" />
        </mxCell>
        <mxCell id="QcWgkCcUUPCsEugS9lYw-37" value="&lt;font style=&quot;font-size: 24px;&quot;&gt;Thí sinh&lt;/font&gt;" style="shape=umlActor;verticalLabelPosition=bottom;verticalAlign=top;html=1;outlineConnect=0;" parent="1" vertex="1">
          <mxGeometry x="500" y="700" width="90" height="120" as="geometry" />
        </mxCell>
        <mxCell id="QcWgkCcUUPCsEugS9lYw-38" value="&lt;font style=&quot;font-size: 28px;&quot;&gt;Admin&lt;/font&gt;" style="shape=umlActor;verticalLabelPosition=bottom;verticalAlign=top;html=1;outlineConnect=0;" parent="1" vertex="1">
          <mxGeometry x="460" y="1770" width="90" height="120" as="geometry" />
        </mxCell>
        <mxCell id="QcWgkCcUUPCsEugS9lYw-39" value="&lt;font style=&quot;font-size: 28px;&quot;&gt;Giám thị&lt;/font&gt;" style="shape=umlActor;verticalLabelPosition=bottom;verticalAlign=top;html=1;outlineConnect=0;" parent="1" vertex="1">
          <mxGeometry x="3650" y="740" width="90" height="120" as="geometry" />
        </mxCell>
        <mxCell id="QcWgkCcUUPCsEugS9lYw-43" value="&lt;font style=&quot;font-size: 24px;&quot;&gt;Giảng viên&lt;/font&gt;" style="shape=umlActor;verticalLabelPosition=bottom;verticalAlign=top;html=1;outlineConnect=0;" parent="1" vertex="1">
          <mxGeometry x="3650" y="1740" width="90" height="120" as="geometry" />
        </mxCell>
        <mxCell id="QcWgkCcUUPCsEugS9lYw-45" value="" style="endArrow=classic;html=1;rounded=0;entryX=1;entryY=1;entryDx=0;entryDy=0;" parent="1" source="QcWgkCcUUPCsEugS9lYw-39" target="QcWgkCcUUPCsEugS9lYw-10" edge="1">
          <mxGeometry width="50" height="50" relative="1" as="geometry">
            <mxPoint x="3290" y="830" as="sourcePoint" />
            <mxPoint x="3340" y="780" as="targetPoint" />
          </mxGeometry>
        </mxCell>
        <mxCell id="QcWgkCcUUPCsEugS9lYw-46" value="" style="endArrow=classic;html=1;rounded=0;entryX=1;entryY=1;entryDx=0;entryDy=0;" parent="1" target="QcWgkCcUUPCsEugS9lYw-11" edge="1">
          <mxGeometry width="50" height="50" relative="1" as="geometry">
            <mxPoint x="3640" y="780" as="sourcePoint" />
            <mxPoint x="3690" y="730" as="targetPoint" />
          </mxGeometry>
        </mxCell>
        <mxCell id="QcWgkCcUUPCsEugS9lYw-47" value="" style="endArrow=classic;html=1;rounded=0;entryX=1;entryY=0.5;entryDx=0;entryDy=0;" parent="1" target="QcWgkCcUUPCsEugS9lYw-12" edge="1">
          <mxGeometry width="50" height="50" relative="1" as="geometry">
            <mxPoint x="3630" y="780" as="sourcePoint" />
            <mxPoint x="2950" y="570" as="targetPoint" />
          </mxGeometry>
        </mxCell>
        <mxCell id="QcWgkCcUUPCsEugS9lYw-48" value="" style="endArrow=classic;html=1;rounded=0;entryX=1;entryY=0.5;entryDx=0;entryDy=0;" parent="1" target="QcWgkCcUUPCsEugS9lYw-13" edge="1">
          <mxGeometry width="50" height="50" relative="1" as="geometry">
            <mxPoint x="3640" y="790" as="sourcePoint" />
            <mxPoint x="3140" y="760" as="targetPoint" />
          </mxGeometry>
        </mxCell>
        <mxCell id="QcWgkCcUUPCsEugS9lYw-49" value="" style="endArrow=classic;html=1;rounded=0;exitX=0;exitY=0.3333333333333333;exitDx=0;exitDy=0;exitPerimeter=0;entryX=1;entryY=0.5;entryDx=0;entryDy=0;" parent="1" source="QcWgkCcUUPCsEugS9lYw-39" target="QcWgkCcUUPCsEugS9lYw-14" edge="1">
          <mxGeometry width="50" height="50" relative="1" as="geometry">
            <mxPoint x="3480" y="940" as="sourcePoint" />
            <mxPoint x="3530" y="890" as="targetPoint" />
          </mxGeometry>
        </mxCell>
        <mxCell id="QcWgkCcUUPCsEugS9lYw-50" value="" style="endArrow=classic;html=1;rounded=0;exitX=0;exitY=0.3333333333333333;exitDx=0;exitDy=0;exitPerimeter=0;entryX=1;entryY=0;entryDx=0;entryDy=0;" parent="1" source="QcWgkCcUUPCsEugS9lYw-39" target="QcWgkCcUUPCsEugS9lYw-24" edge="1">
          <mxGeometry width="50" height="50" relative="1" as="geometry">
            <mxPoint x="3540" y="980" as="sourcePoint" />
            <mxPoint x="3590" y="930" as="targetPoint" />
          </mxGeometry>
        </mxCell>
        <mxCell id="QcWgkCcUUPCsEugS9lYw-51" value="&lt;font style=&quot;font-size: 29px;&quot;&gt;Đổi mật khẩu&lt;/font&gt;" style="ellipse;whiteSpace=wrap;html=1;" parent="1" vertex="1">
          <mxGeometry x="1970" y="1550" width="250" height="110" as="geometry" />
        </mxCell>
        <mxCell id="QcWgkCcUUPCsEugS9lYw-52" value="" style="endArrow=classic;html=1;rounded=0;exitX=0;exitY=0.3333333333333333;exitDx=0;exitDy=0;exitPerimeter=0;entryX=1;entryY=0;entryDx=0;entryDy=0;" parent="1" source="QcWgkCcUUPCsEugS9lYw-39" target="QcWgkCcUUPCsEugS9lYw-51" edge="1">
          <mxGeometry width="50" height="50" relative="1" as="geometry">
            <mxPoint x="3490" y="1130" as="sourcePoint" />
            <mxPoint x="3540" y="1080" as="targetPoint" />
          </mxGeometry>
        </mxCell>
        <mxCell id="QcWgkCcUUPCsEugS9lYw-53" value="" style="endArrow=classic;html=1;rounded=0;exitX=0;exitY=0.3333333333333333;exitDx=0;exitDy=0;exitPerimeter=0;entryX=1;entryY=0.5;entryDx=0;entryDy=0;" parent="1" source="QcWgkCcUUPCsEugS9lYw-43" target="QcWgkCcUUPCsEugS9lYw-32" edge="1">
          <mxGeometry width="50" height="50" relative="1" as="geometry">
            <mxPoint x="3520" y="1710" as="sourcePoint" />
            <mxPoint x="3570" y="1660" as="targetPoint" />
          </mxGeometry>
        </mxCell>
        <mxCell id="QcWgkCcUUPCsEugS9lYw-54" value="" style="endArrow=classic;html=1;rounded=0;exitX=0.75;exitY=0.095;exitDx=0;exitDy=0;exitPerimeter=0;entryX=0.333;entryY=0.952;entryDx=0;entryDy=0;entryPerimeter=0;" parent="1" source="QcWgkCcUUPCsEugS9lYw-32" target="QcWgkCcUUPCsEugS9lYw-29" edge="1">
          <mxGeometry width="50" height="50" relative="1" as="geometry">
            <mxPoint x="3010" y="1530" as="sourcePoint" />
            <mxPoint x="3060" y="1480" as="targetPoint" />
          </mxGeometry>
        </mxCell>
        <mxCell id="QcWgkCcUUPCsEugS9lYw-55" value="" style="endArrow=classic;html=1;rounded=0;entryX=0.5;entryY=1;entryDx=0;entryDy=0;exitX=0.5;exitY=0;exitDx=0;exitDy=0;" parent="1" source="QcWgkCcUUPCsEugS9lYw-32" target="QcWgkCcUUPCsEugS9lYw-30" edge="1">
          <mxGeometry width="50" height="50" relative="1" as="geometry">
            <mxPoint x="2820" y="1470" as="sourcePoint" />
            <mxPoint x="2870" y="1420" as="targetPoint" />
          </mxGeometry>
        </mxCell>
        <mxCell id="QcWgkCcUUPCsEugS9lYw-56" value="" style="endArrow=classic;html=1;rounded=0;exitX=0.293;exitY=0.137;exitDx=0;exitDy=0;entryX=1;entryY=1;entryDx=0;entryDy=0;exitPerimeter=0;" parent="1" source="QcWgkCcUUPCsEugS9lYw-32" target="QcWgkCcUUPCsEugS9lYw-31" edge="1">
          <mxGeometry width="50" height="50" relative="1" as="geometry">
            <mxPoint x="2786.5534482758267" y="1690.0031034482613" as="sourcePoint" />
            <mxPoint x="2653.45" y="1523.71" as="targetPoint" />
          </mxGeometry>
        </mxCell>
        <mxCell id="QcWgkCcUUPCsEugS9lYw-57" value="" style="endArrow=classic;html=1;rounded=0;entryX=1;entryY=0.5;entryDx=0;entryDy=0;" parent="1" target="QcWgkCcUUPCsEugS9lYw-33" edge="1">
          <mxGeometry width="50" height="50" relative="1" as="geometry">
            <mxPoint x="3650" y="1780" as="sourcePoint" />
            <mxPoint x="3520" y="1920" as="targetPoint" />
          </mxGeometry>
        </mxCell>
        <mxCell id="QcWgkCcUUPCsEugS9lYw-58" value="" style="endArrow=classic;html=1;rounded=0;exitX=0;exitY=0.3333333333333333;exitDx=0;exitDy=0;exitPerimeter=0;entryX=1;entryY=0.5;entryDx=0;entryDy=0;" parent="1" source="QcWgkCcUUPCsEugS9lYw-43" target="QcWgkCcUUPCsEugS9lYw-34" edge="1">
          <mxGeometry width="50" height="50" relative="1" as="geometry">
            <mxPoint x="3470" y="1940" as="sourcePoint" />
            <mxPoint x="3520" y="1890" as="targetPoint" />
          </mxGeometry>
        </mxCell>
        <mxCell id="QcWgkCcUUPCsEugS9lYw-59" value="" style="endArrow=classic;html=1;rounded=0;entryX=1;entryY=0;entryDx=0;entryDy=0;" parent="1" target="QcWgkCcUUPCsEugS9lYw-35" edge="1">
          <mxGeometry width="50" height="50" relative="1" as="geometry">
            <mxPoint x="3640" y="1780" as="sourcePoint" />
            <mxPoint x="3490" y="1950" as="targetPoint" />
          </mxGeometry>
        </mxCell>
        <mxCell id="QcWgkCcUUPCsEugS9lYw-61" value="" style="endArrow=classic;html=1;rounded=0;exitX=0;exitY=0.3333333333333333;exitDx=0;exitDy=0;exitPerimeter=0;entryX=1;entryY=0;entryDx=0;entryDy=0;" parent="1" source="QcWgkCcUUPCsEugS9lYw-43" target="QcWgkCcUUPCsEugS9lYw-36" edge="1">
          <mxGeometry width="50" height="50" relative="1" as="geometry">
            <mxPoint x="3510" y="2080" as="sourcePoint" />
            <mxPoint x="3560" y="2030" as="targetPoint" />
          </mxGeometry>
        </mxCell>
        <mxCell id="QcWgkCcUUPCsEugS9lYw-62" value="" style="endArrow=classic;html=1;rounded=0;" parent="1" edge="1">
          <mxGeometry width="50" height="50" relative="1" as="geometry">
            <mxPoint x="590" y="740" as="sourcePoint" />
            <mxPoint x="1570" y="240" as="targetPoint" />
          </mxGeometry>
        </mxCell>
        <mxCell id="QcWgkCcUUPCsEugS9lYw-63" value="" style="endArrow=classic;html=1;rounded=0;exitX=1;exitY=0.3333333333333333;exitDx=0;exitDy=0;exitPerimeter=0;entryX=0;entryY=0.5;entryDx=0;entryDy=0;" parent="1" source="QcWgkCcUUPCsEugS9lYw-37" target="QcWgkCcUUPCsEugS9lYw-4" edge="1">
          <mxGeometry width="50" height="50" relative="1" as="geometry">
            <mxPoint x="640" y="780" as="sourcePoint" />
            <mxPoint x="690" y="730" as="targetPoint" />
          </mxGeometry>
        </mxCell>
        <mxCell id="QcWgkCcUUPCsEugS9lYw-64" value="" style="endArrow=classic;html=1;rounded=0;exitX=1;exitY=0.3333333333333333;exitDx=0;exitDy=0;exitPerimeter=0;entryX=0;entryY=0.5;entryDx=0;entryDy=0;" parent="1" source="QcWgkCcUUPCsEugS9lYw-37" target="QcWgkCcUUPCsEugS9lYw-6" edge="1">
          <mxGeometry width="50" height="50" relative="1" as="geometry">
            <mxPoint x="740" y="860" as="sourcePoint" />
            <mxPoint x="790" y="810" as="targetPoint" />
          </mxGeometry>
        </mxCell>
        <mxCell id="QcWgkCcUUPCsEugS9lYw-65" value="" style="endArrow=classic;html=1;rounded=0;exitX=1;exitY=0.3333333333333333;exitDx=0;exitDy=0;exitPerimeter=0;entryX=0;entryY=0.5;entryDx=0;entryDy=0;" parent="1" source="QcWgkCcUUPCsEugS9lYw-37" target="QcWgkCcUUPCsEugS9lYw-7" edge="1">
          <mxGeometry width="50" height="50" relative="1" as="geometry">
            <mxPoint x="670" y="840" as="sourcePoint" />
            <mxPoint x="720" y="790" as="targetPoint" />
          </mxGeometry>
        </mxCell>
        <mxCell id="QcWgkCcUUPCsEugS9lYw-66" value="" style="endArrow=classic;html=1;rounded=0;exitX=1;exitY=0.3333333333333333;exitDx=0;exitDy=0;exitPerimeter=0;entryX=0;entryY=0;entryDx=0;entryDy=0;" parent="1" source="QcWgkCcUUPCsEugS9lYw-37" target="QcWgkCcUUPCsEugS9lYw-16" edge="1">
          <mxGeometry width="50" height="50" relative="1" as="geometry">
            <mxPoint x="710" y="940" as="sourcePoint" />
            <mxPoint x="760" y="890" as="targetPoint" />
          </mxGeometry>
        </mxCell>
        <mxCell id="QcWgkCcUUPCsEugS9lYw-67" value="" style="endArrow=classic;html=1;rounded=0;exitX=1;exitY=0.3333333333333333;exitDx=0;exitDy=0;exitPerimeter=0;entryX=0;entryY=0.5;entryDx=0;entryDy=0;" parent="1" source="QcWgkCcUUPCsEugS9lYw-37" target="QcWgkCcUUPCsEugS9lYw-17" edge="1">
          <mxGeometry width="50" height="50" relative="1" as="geometry">
            <mxPoint x="710" y="1060" as="sourcePoint" />
            <mxPoint x="760" y="1010" as="targetPoint" />
          </mxGeometry>
        </mxCell>
        <mxCell id="QcWgkCcUUPCsEugS9lYw-68" value="" style="endArrow=classic;html=1;rounded=0;exitX=1;exitY=0.3333333333333333;exitDx=0;exitDy=0;exitPerimeter=0;entryX=0;entryY=0.5;entryDx=0;entryDy=0;" parent="1" source="QcWgkCcUUPCsEugS9lYw-37" target="QcWgkCcUUPCsEugS9lYw-18" edge="1">
          <mxGeometry width="50" height="50" relative="1" as="geometry">
            <mxPoint x="670" y="1040" as="sourcePoint" />
            <mxPoint x="720" y="990" as="targetPoint" />
          </mxGeometry>
        </mxCell>
        <mxCell id="QcWgkCcUUPCsEugS9lYw-69" value="" style="endArrow=classic;html=1;rounded=0;exitX=1;exitY=0.3333333333333333;exitDx=0;exitDy=0;exitPerimeter=0;entryX=0;entryY=0.5;entryDx=0;entryDy=0;" parent="1" source="QcWgkCcUUPCsEugS9lYw-37" target="QcWgkCcUUPCsEugS9lYw-19" edge="1">
          <mxGeometry width="50" height="50" relative="1" as="geometry">
            <mxPoint x="650" y="1210" as="sourcePoint" />
            <mxPoint x="700" y="1160" as="targetPoint" />
          </mxGeometry>
        </mxCell>
        <mxCell id="QcWgkCcUUPCsEugS9lYw-70" value="" style="endArrow=classic;html=1;rounded=0;entryX=0.279;entryY=0.897;entryDx=0;entryDy=0;entryPerimeter=0;exitX=1;exitY=0;exitDx=0;exitDy=0;" parent="1" source="QcWgkCcUUPCsEugS9lYw-7" target="QcWgkCcUUPCsEugS9lYw-8" edge="1">
          <mxGeometry width="50" height="50" relative="1" as="geometry">
            <mxPoint x="1590" y="840" as="sourcePoint" />
            <mxPoint x="1640" y="790" as="targetPoint" />
          </mxGeometry>
        </mxCell>
        <mxCell id="QcWgkCcUUPCsEugS9lYw-71" value="" style="endArrow=classic;html=1;rounded=0;entryX=0;entryY=0;entryDx=0;entryDy=0;" parent="1" source="QcWgkCcUUPCsEugS9lYw-7" target="QcWgkCcUUPCsEugS9lYw-9" edge="1">
          <mxGeometry width="50" height="50" relative="1" as="geometry">
            <mxPoint x="1730" y="900" as="sourcePoint" />
            <mxPoint x="1780" y="850" as="targetPoint" />
          </mxGeometry>
        </mxCell>
        <mxCell id="QcWgkCcUUPCsEugS9lYw-72" value="" style="endArrow=classic;html=1;rounded=0;exitX=1;exitY=0.3333333333333333;exitDx=0;exitDy=0;exitPerimeter=0;entryX=0.469;entryY=0.656;entryDx=0;entryDy=0;entryPerimeter=0;" parent="1" source="QcWgkCcUUPCsEugS9lYw-37" target="QcWgkCcUUPCsEugS9lYw-1" edge="1">
          <mxGeometry width="50" height="50" relative="1" as="geometry">
            <mxPoint x="730" y="1100" as="sourcePoint" />
            <mxPoint x="780" y="1050" as="targetPoint" />
          </mxGeometry>
        </mxCell>
        <mxCell id="QcWgkCcUUPCsEugS9lYw-73" value="" style="endArrow=classic;html=1;rounded=0;entryX=1;entryY=0.5;entryDx=0;entryDy=0;" parent="1" target="QcWgkCcUUPCsEugS9lYw-51" edge="1">
          <mxGeometry width="50" height="50" relative="1" as="geometry">
            <mxPoint x="3640" y="1780" as="sourcePoint" />
            <mxPoint x="3510" y="1540" as="targetPoint" />
          </mxGeometry>
        </mxCell>
        <mxCell id="QcWgkCcUUPCsEugS9lYw-74" value="" style="endArrow=classic;html=1;rounded=0;exitX=0;exitY=0.3333333333333333;exitDx=0;exitDy=0;exitPerimeter=0;entryX=1;entryY=0.5;entryDx=0;entryDy=0;" parent="1" source="QcWgkCcUUPCsEugS9lYw-43" target="QcWgkCcUUPCsEugS9lYw-32" edge="1">
          <mxGeometry width="50" height="50" relative="1" as="geometry">
            <mxPoint x="3650" y="1780" as="sourcePoint" />
            <mxPoint x="2200" y="1625" as="targetPoint" />
          </mxGeometry>
        </mxCell>
        <mxCell id="QcWgkCcUUPCsEugS9lYw-32" value="&lt;font style=&quot;font-size: 26px;&quot;&gt;Quản lý ngân hàng câu hỏi&lt;/font&gt;" style="ellipse;whiteSpace=wrap;html=1;" parent="1" vertex="1">
          <mxGeometry x="2700" y="1740" width="240" height="105" as="geometry" />
        </mxCell>
        <mxCell id="QcWgkCcUUPCsEugS9lYw-75" value="" style="endArrow=classic;html=1;rounded=0;entryX=1;entryY=0.5;entryDx=0;entryDy=0;" parent="1" target="QcWgkCcUUPCsEugS9lYw-24" edge="1">
          <mxGeometry width="50" height="50" relative="1" as="geometry">
            <mxPoint x="3640" y="1770" as="sourcePoint" />
            <mxPoint x="3650" y="1600" as="targetPoint" />
          </mxGeometry>
        </mxCell>
        <mxCell id="QcWgkCcUUPCsEugS9lYw-76" value="" style="endArrow=classic;html=1;rounded=0;exitX=1;exitY=1;exitDx=0;exitDy=0;entryX=0;entryY=0;entryDx=0;entryDy=0;" parent="1" source="QcWgkCcUUPCsEugS9lYw-9" target="QcWgkCcUUPCsEugS9lYw-15" edge="1">
          <mxGeometry width="50" height="50" relative="1" as="geometry">
            <mxPoint x="2060" y="1060" as="sourcePoint" />
            <mxPoint x="2110" y="1010" as="targetPoint" />
          </mxGeometry>
        </mxCell>
        <mxCell id="QcWgkCcUUPCsEugS9lYw-77" value="" style="endArrow=classic;html=1;rounded=0;entryX=0.346;entryY=0.063;entryDx=0;entryDy=0;entryPerimeter=0;" parent="1" target="QcWgkCcUUPCsEugS9lYw-24" edge="1">
          <mxGeometry width="50" height="50" relative="1" as="geometry">
            <mxPoint x="600" y="750" as="sourcePoint" />
            <mxPoint x="750" y="980" as="targetPoint" />
          </mxGeometry>
        </mxCell>
        <mxCell id="QcWgkCcUUPCsEugS9lYw-78" value="" style="endArrow=classic;html=1;rounded=0;entryX=0;entryY=0.5;entryDx=0;entryDy=0;" parent="1" target="QcWgkCcUUPCsEugS9lYw-24" edge="1">
          <mxGeometry width="50" height="50" relative="1" as="geometry">
            <mxPoint x="560" y="1810" as="sourcePoint" />
            <mxPoint x="610" y="1760" as="targetPoint" />
          </mxGeometry>
        </mxCell>
        <mxCell id="QcWgkCcUUPCsEugS9lYw-79" value="" style="endArrow=classic;html=1;rounded=0;" parent="1" target="QcWgkCcUUPCsEugS9lYw-25" edge="1">
          <mxGeometry width="50" height="50" relative="1" as="geometry">
            <mxPoint x="560" y="1810" as="sourcePoint" />
            <mxPoint x="610" y="1760" as="targetPoint" />
          </mxGeometry>
        </mxCell>
        <mxCell id="QcWgkCcUUPCsEugS9lYw-80" value="" style="endArrow=classic;html=1;rounded=0;entryX=0;entryY=0.5;entryDx=0;entryDy=0;" parent="1" target="QcWgkCcUUPCsEugS9lYw-26" edge="1">
          <mxGeometry width="50" height="50" relative="1" as="geometry">
            <mxPoint x="560" y="1810" as="sourcePoint" />
            <mxPoint x="710" y="1960" as="targetPoint" />
          </mxGeometry>
        </mxCell>
        <mxCell id="QcWgkCcUUPCsEugS9lYw-81" value="" style="endArrow=classic;html=1;rounded=0;exitX=1;exitY=0.3333333333333333;exitDx=0;exitDy=0;exitPerimeter=0;entryX=0.064;entryY=0.281;entryDx=0;entryDy=0;entryPerimeter=0;" parent="1" source="QcWgkCcUUPCsEugS9lYw-38" target="QcWgkCcUUPCsEugS9lYw-27" edge="1">
          <mxGeometry width="50" height="50" relative="1" as="geometry">
            <mxPoint x="690" y="2030" as="sourcePoint" />
            <mxPoint x="740" y="1980" as="targetPoint" />
          </mxGeometry>
        </mxCell>
        <mxCell id="QcWgkCcUUPCsEugS9lYw-82" value="" style="endArrow=classic;html=1;rounded=0;entryX=0;entryY=0;entryDx=0;entryDy=0;" parent="1" target="QcWgkCcUUPCsEugS9lYw-28" edge="1">
          <mxGeometry width="50" height="50" relative="1" as="geometry">
            <mxPoint x="560" y="1820" as="sourcePoint" />
            <mxPoint x="730" y="2050" as="targetPoint" />
          </mxGeometry>
        </mxCell>
        <mxCell id="QcWgkCcUUPCsEugS9lYw-83" value="" style="endArrow=classic;html=1;rounded=0;exitX=0.5;exitY=1;exitDx=0;exitDy=0;entryX=0.743;entryY=0.103;entryDx=0;entryDy=0;entryPerimeter=0;" parent="1" source="QcWgkCcUUPCsEugS9lYw-24" target="QcWgkCcUUPCsEugS9lYw-27" edge="1">
          <mxGeometry width="50" height="50" relative="1" as="geometry">
            <mxPoint x="1660" y="1880" as="sourcePoint" />
            <mxPoint x="1710" y="1830" as="targetPoint" />
          </mxGeometry>
        </mxCell>
        <mxCell id="QcWgkCcUUPCsEugS9lYw-84" value="" style="endArrow=classic;html=1;rounded=0;entryX=0.665;entryY=0.933;entryDx=0;entryDy=0;entryPerimeter=0;exitX=0.5;exitY=0;exitDx=0;exitDy=0;" parent="1" source="QcWgkCcUUPCsEugS9lYw-25" target="QcWgkCcUUPCsEugS9lYw-20" edge="1">
          <mxGeometry width="50" height="50" relative="1" as="geometry">
            <mxPoint x="1220" y="1680" as="sourcePoint" />
            <mxPoint x="1270" y="1630" as="targetPoint" />
          </mxGeometry>
        </mxCell>
        <mxCell id="QcWgkCcUUPCsEugS9lYw-85" value="" style="endArrow=classic;html=1;rounded=0;exitX=0;exitY=0;exitDx=0;exitDy=0;entryX=0.665;entryY=0.952;entryDx=0;entryDy=0;entryPerimeter=0;" parent="1" source="QcWgkCcUUPCsEugS9lYw-25" target="QcWgkCcUUPCsEugS9lYw-21" edge="1">
          <mxGeometry width="50" height="50" relative="1" as="geometry">
            <mxPoint x="940" y="1720" as="sourcePoint" />
            <mxPoint x="990" y="1670" as="targetPoint" />
          </mxGeometry>
        </mxCell>
        <mxCell id="QcWgkCcUUPCsEugS9lYw-86" value="" style="endArrow=classic;html=1;rounded=0;entryX=0.5;entryY=1;entryDx=0;entryDy=0;exitX=0.5;exitY=0;exitDx=0;exitDy=0;" parent="1" source="QcWgkCcUUPCsEugS9lYw-25" target="QcWgkCcUUPCsEugS9lYw-22" edge="1">
          <mxGeometry width="50" height="50" relative="1" as="geometry">
            <mxPoint x="1180" y="1660" as="sourcePoint" />
            <mxPoint x="1230" y="1610" as="targetPoint" />
          </mxGeometry>
        </mxCell>
        <mxCell id="QcWgkCcUUPCsEugS9lYw-87" value="" style="endArrow=classic;html=1;rounded=0;exitX=1;exitY=0;exitDx=0;exitDy=0;entryX=0.361;entryY=1;entryDx=0;entryDy=0;entryPerimeter=0;" parent="1" source="QcWgkCcUUPCsEugS9lYw-25" target="QcWgkCcUUPCsEugS9lYw-23" edge="1">
          <mxGeometry width="50" height="50" relative="1" as="geometry">
            <mxPoint x="1360" y="1650" as="sourcePoint" />
            <mxPoint x="1410" y="1600" as="targetPoint" />
          </mxGeometry>
        </mxCell>
        <mxCell id="ZDsk0fy9ZctJhvzi_ibq-1" value="" style="endArrow=classic;html=1;rounded=0;entryX=0;entryY=1;entryDx=0;entryDy=0;" edge="1" parent="1" target="QcWgkCcUUPCsEugS9lYw-5">
          <mxGeometry width="50" height="50" relative="1" as="geometry">
            <mxPoint x="1360" y="680" as="sourcePoint" />
            <mxPoint x="1410" y="630" as="targetPoint" />
          </mxGeometry>
        </mxCell>
      </root>
    </mxGraphModel>
  </diagram>
</mxfile>
